<svg width="24" height="24" viewBox="0 0 24 24" fill="none" xmlns="http://www.w3.org/2000/svg">
<g clip-path="url(#clip0_227_1070)">
<path d="M12 5.33333L7.33333 0H0L9.33333 11.3333L17.014 8.16667L12 5.33333Z" fill="#55ACEE"/>
<path d="M16.6667 0L12 5.33333L15.5933 10.208L16.4113 9.21533L24 0H16.6667Z" fill="#3B88C3"/>
<path d="M15.47 10.684C15.5233 10.5393 15.5573 10.3853 15.5573 10.222C15.5573 9.86838 15.4168 9.52924 15.1668 9.2792C14.9167 9.02915 14.5776 8.88867 14.224 8.88867H9.77929C9.42567 8.88867 9.08653 9.02915 8.83648 9.2792C8.58643 9.52924 8.44596 9.86838 8.44596 10.222C8.44596 10.3853 8.47929 10.5393 8.53329 10.684C6.36129 11.9013 4.89063 14.222 4.89063 16.8887C4.88996 20.816 8.07396 24 12.0013 24C15.9286 24 19.1126 20.816 19.1126 16.8887C19.1126 14.222 17.642 11.9013 15.47 10.684Z" fill="#FFAC33"/>
<path d="M12.9356 12.3999H11.7882L9.96822 13.8212C9.92578 13.8749 9.89984 13.9398 9.89355 14.0079V14.7932C9.89355 14.9172 9.99356 15.0292 10.1182 15.0292H11.3149V20.6386C11.3149 20.7639 11.4149 20.8752 11.5516 20.8752H12.9356C13.0596 20.8752 13.1596 20.7632 13.1596 20.6386V12.6359C13.1596 12.5119 13.0602 12.3999 12.9356 12.3999Z" fill="#9E5200"/>
</g>
<defs>
<clipPath id="clip0_227_1070">
<rect width="24" height="24" fill="white"/>
</clipPath>
</defs>
</svg>
