<svg width="24" height="24" viewBox="0 0 24 24" fill="none" xmlns="http://www.w3.org/2000/svg">
<g clip-path="url(#clip0_227_1076)">
<path d="M12 5.33333L7.33333 0H0L9.33333 11.3333L17.014 8.16667L12 5.33333Z" fill="#55ACEE"/>
<path d="M16.6667 0L12 5.33333L15.5933 10.208L16.4113 9.21533L24 0H16.6667Z" fill="#3B88C3"/>
<path d="M15.47 10.684C15.5233 10.5393 15.5573 10.3853 15.5573 10.222C15.5573 9.86838 15.4168 9.52924 15.1668 9.2792C14.9167 9.02915 14.5776 8.88867 14.224 8.88867H9.77929C9.42567 8.88867 9.08653 9.02915 8.83648 9.2792C8.58643 9.52924 8.44596 9.86838 8.44596 10.222C8.44596 10.3853 8.47929 10.5393 8.53329 10.684C6.36129 11.9013 4.89063 14.222 4.89063 16.8887C4.88996 20.816 8.07396 24 12.0013 24C15.9286 24 19.1126 20.816 19.1126 16.8887C19.1126 14.222 17.642 11.9013 15.47 10.684Z" fill="#CCD6DD"/>
<path d="M14.6677 19.2807H12.3057C12.891 18.4581 13.9137 17.1247 14.3124 16.4134C14.6117 15.8274 14.7984 15.4541 14.7984 14.7934C14.7984 13.4094 13.7517 12.2754 11.969 12.2754C10.4857 12.2754 9.4757 13.4967 9.4757 13.4967C9.38837 13.5967 9.40103 13.7461 9.48837 13.8214L10.249 14.5941C10.2715 14.6178 10.2985 14.6366 10.3285 14.6495C10.3584 14.6625 10.3907 14.6691 10.4234 14.6691C10.456 14.6691 10.4883 14.6625 10.5183 14.6495C10.5482 14.6366 10.5753 14.6178 10.5977 14.5941C10.8344 14.3321 11.2957 13.9707 11.8064 13.9707C12.5044 13.9707 12.9037 14.3941 12.9037 14.8681C12.9037 15.2167 12.7417 15.5661 12.5797 15.8154C11.8437 16.9367 9.99903 19.4427 9.27637 20.3901V20.6394C9.27637 20.7647 9.3757 20.8761 9.51303 20.8761H14.6677C14.7297 20.8736 14.7885 20.8479 14.8323 20.804C14.8762 20.7601 14.9019 20.7014 14.9044 20.6394V19.5181C14.9025 19.4558 14.877 19.3966 14.8331 19.3525C14.7891 19.3084 14.7299 19.2827 14.6677 19.2807Z" fill="#627077"/>
</g>
<defs>
<clipPath id="clip0_227_1076">
<rect width="24" height="24" fill="white"/>
</clipPath>
</defs>
</svg>
