<svg width="24" height="24" viewBox="0 0 24 24" fill="none" xmlns="http://www.w3.org/2000/svg">
<g clip-path="url(#clip0_227_1084)">
<path d="M12 5.33333L7.33333 0H0L9.33333 11.3333L17.014 8.16667L12 5.33333Z" fill="#55ACEE"/>
<path d="M16.6667 0L12 5.33333L15.5933 10.208L16.4113 9.21533L24 0H16.6667Z" fill="#3B88C3"/>
<path d="M15.47 10.684C15.5233 10.5393 15.5573 10.3853 15.5573 10.222C15.5573 9.86838 15.4168 9.52924 15.1668 9.2792C14.9167 9.02915 14.5776 8.88867 14.224 8.88867H9.77929C9.42567 8.88867 9.08653 9.02915 8.83648 9.2792C8.58643 9.52924 8.44596 9.86838 8.44596 10.222C8.44596 10.3853 8.47929 10.5393 8.53329 10.684C6.36129 11.9013 4.89063 14.222 4.89063 16.8887C4.88996 20.816 8.07396 24 12.0013 24C15.9286 24 19.1126 20.816 19.1126 16.8887C19.1126 14.222 17.642 11.9013 15.47 10.684Z" fill="#FF8A3B"/>
<path d="M9.41359 19.5668L10.1989 18.7814C10.2381 18.7388 10.2919 18.7125 10.3496 18.7078C10.4073 18.7031 10.4647 18.7204 10.5103 18.7561C10.5103 18.7561 11.2829 19.3301 11.8809 19.3301C12.4176 19.3301 12.9663 18.8814 12.9663 18.3328C12.9663 17.7841 12.4049 17.3234 11.4829 17.3234H11.0569C10.9949 17.3213 10.936 17.2956 10.8922 17.2517C10.8484 17.2077 10.8229 17.1488 10.8209 17.0868V16.0521C10.8209 15.9148 10.9329 15.8154 11.0569 15.8154H11.4829C12.3556 15.8154 12.8163 15.3921 12.8163 14.8561C12.8163 14.3194 12.3556 13.9214 11.8189 13.9214C11.2703 13.9214 10.9216 14.2081 10.7349 14.4194C10.6469 14.5194 10.4983 14.5194 10.3989 14.4328L9.63826 13.6848C9.53759 13.5968 9.55026 13.4481 9.63826 13.3608C9.63826 13.3608 10.6603 12.2634 12.0183 12.2634C13.4643 12.2634 14.7109 13.1488 14.7109 14.5448C14.7109 15.5041 13.9876 16.2148 13.4269 16.4761V16.5141C14.0129 16.7634 14.9349 17.5361 14.9349 18.6081C14.9349 19.9668 13.7509 20.9894 12.0303 20.9894C10.4609 20.9894 9.66226 20.2161 9.40092 19.8801C9.32559 19.7908 9.33892 19.6534 9.41359 19.5668Z" fill="#7C4119"/>
</g>
<defs>
<clipPath id="clip0_227_1084">
<rect width="24" height="24" fill="white"/>
</clipPath>
</defs>
</svg>
