<svg width="12" height="12" viewBox="0 0 12 12" fill="none" xmlns="http://www.w3.org/2000/svg">
<g clip-path="url(#clip0_36_118)">
<path d="M4.61538 0C2.09862 0 0 1.73077 0 3.92308C0 5.04462 0.613846 6.02215 1.48569 6.73569C1.42895 7.1147 1.27485 7.47251 1.03846 7.77415C0.94195 7.89795 0.84096 8.01818 0.735692 8.13462C0.681245 8.19196 0.632836 8.25475 0.591231 8.322C0.564923 8.36492 0.523846 8.41292 0.504923 8.50985C0.486 8.60677 0.511846 8.76508 0.591231 8.88462L0.648923 8.98569L0.764308 9.04338C1.16815 9.24508 1.60431 9.20954 2.00492 9.10108C2.40508 8.99215 2.79 8.80569 3.15877 8.61046C3.52754 8.41523 3.87738 8.21169 4.15385 8.06262C4.19262 8.04185 4.21754 8.03677 4.25492 8.01923C4.98277 9.01985 6.31569 9.69231 7.80277 9.69231C7.81708 9.69415 7.83046 9.69231 7.84615 9.69231C8.44615 9.69231 10.3846 11.6742 11.5385 10.8895C11.5846 10.7054 10.524 10.2434 10.4709 8.87031C11.3742 8.232 11.9571 7.28262 11.9571 6.23077C11.9571 4.67446 10.722 3.38862 9.07246 2.928C8.55046 1.22954 6.73569 0 4.61538 0ZM4.61538 0.923077C6.714 0.923077 8.30769 2.33077 8.30769 3.92308C8.30769 5.51538 6.714 6.92308 4.61538 6.92308C4.24062 6.92308 4.02554 7.07631 3.72092 7.24062C3.41631 7.40492 3.06692 7.608 2.72585 7.78846C2.43046 7.94446 2.14892 8.06446 1.88954 8.14892C2.142 7.78431 2.40554 7.30477 2.45169 6.63462L2.46646 6.37477L2.25 6.21646C1.42754 5.64 0.923077 4.81062 0.923077 3.92308C0.923077 2.33077 2.51677 0.923077 4.61538 0.923077Z" fill="white"/>
</g>
<defs>
<clipPath id="clip0_36_118">
<rect width="12" height="12" fill="white"/>
</clipPath>
</defs>
</svg>
