<svg width="12" height="12" viewBox="0 0 12 12" fill="none" xmlns="http://www.w3.org/2000/svg">
<g clip-path="url(#clip0_36_94)">
<path d="M1.24988 10.75L1.94988 10.05M10.0499 1.95L10.7499 1.25M4.79988 7.2L7.19988 4.8M8.79788 6.384C8.98546 6.57158 9.23986 6.67696 9.50513 6.67696C9.7704 6.67696 10.0248 6.57158 10.2124 6.384C10.4 6.19643 10.5053 5.94202 10.5053 5.67675C10.5053 5.41148 10.4 5.15708 10.2124 4.9695L9.32838 4.086C9.51595 4.27351 9.77033 4.37883 10.0356 4.37878C10.1669 4.37876 10.2969 4.35287 10.4182 4.30259C10.5396 4.25231 10.6498 4.17863 10.7426 4.08575C10.8355 3.99288 10.9091 3.88262 10.9594 3.76128C11.0096 3.63995 11.0354 3.5099 11.0354 3.37858C11.0354 3.24725 11.0095 3.11722 10.9592 2.9959C10.9089 2.87458 10.8353 2.76435 10.7424 2.6715L9.32838 1.2575C9.14087 1.06993 8.88653 0.964524 8.62131 0.964478C8.35608 0.964431 8.10171 1.06975 7.91413 1.25725C7.72656 1.44476 7.62115 1.6991 7.62111 1.96433C7.62106 2.22955 7.72637 2.48393 7.91388 2.6715L7.03038 1.7875C6.9375 1.69463 6.82724 1.62095 6.70589 1.57069C6.58454 1.52042 6.45448 1.49455 6.32313 1.49455C6.19178 1.49455 6.06172 1.52042 5.94037 1.57069C5.81902 1.62095 5.70876 1.69463 5.61588 1.7875C5.523 1.88038 5.44933 1.99064 5.39906 2.11199C5.3488 2.23334 5.32293 2.3634 5.32293 2.49475C5.32293 2.6261 5.3488 2.75616 5.39906 2.87751C5.44933 2.99886 5.523 3.10913 5.61588 3.202L8.79788 6.384ZM2.67138 10.7425C2.85889 10.9301 3.11323 11.0355 3.37845 11.0355C3.50978 11.0356 3.63982 11.0097 3.76116 10.9595C3.8825 10.9092 3.99275 10.8356 4.08563 10.7428C4.17851 10.6499 4.25219 10.5397 4.30247 10.4184C4.35274 10.297 4.37863 10.167 4.37866 10.0357C4.37868 9.90435 4.35284 9.77431 4.3026 9.65297C4.25237 9.53164 4.17873 9.42138 4.08588 9.3285L4.96938 10.2125C5.15696 10.4001 5.41136 10.5055 5.67663 10.5055C5.9419 10.5055 6.19631 10.4001 6.38388 10.2125C6.57146 10.0249 6.67683 9.77052 6.67683 9.50525C6.67683 9.23998 6.57146 8.98558 6.38388 8.798L3.20188 5.616C3.109 5.52313 2.99874 5.44945 2.87739 5.39919C2.75604 5.34892 2.62598 5.32305 2.49463 5.32305C2.36328 5.32305 2.23322 5.34892 2.11187 5.39919C1.99052 5.44945 1.88026 5.52313 1.78738 5.616C1.6945 5.70888 1.62083 5.81914 1.57056 5.94049C1.5203 6.06184 1.49443 6.1919 1.49443 6.32325C1.49443 6.4546 1.5203 6.58466 1.57056 6.70601C1.62083 6.82736 1.6945 6.93763 1.78738 7.0305L2.67138 7.914C2.48381 7.7265 2.22943 7.62118 1.9642 7.62123C1.69898 7.62127 1.44464 7.72668 1.25713 7.91425C1.06962 8.10183 0.964309 8.35621 0.964355 8.62143C0.964402 8.88665 1.06981 9.14099 1.25738 9.3285L2.67138 10.7425Z" stroke="white" stroke-linecap="round" stroke-linejoin="round"/>
</g>
<defs>
<clipPath id="clip0_36_94">
<rect width="12" height="12" fill="white"/>
</clipPath>
</defs>
</svg>
