<svg width="12" height="12" viewBox="0 0 12 12" fill="none" xmlns="http://www.w3.org/2000/svg">
<g clip-path="url(#clip0_36_90)">
<path d="M5.5 8.5H4C2.586 8.5 1.8785 8.5 1.4395 8.0605C1 7.6215 1 6.914 1 5.5V5C1 3.1145 1 2.1715 1.586 1.586C2.172 1.0005 3.1145 1 5 1H7.75C8.9175 1 9.501 1 9.943 1.236C10.2918 1.42246 10.5775 1.70817 10.764 2.057C11 2.499 11 3.0825 11 4.25" stroke="white" stroke-width="0.75" stroke-linecap="round"/>
<path d="M7 7.5C7 6.557 7 6.086 7.293 5.793C7.586 5.5 8.057 5.5 9 5.5C9.943 5.5 10.414 5.5 10.707 5.793C11 6.086 11 6.557 11 7.5V9C11 9.943 11 10.414 10.707 10.707C10.414 11 9.943 11 9 11C8.057 11 7.586 11 7.293 10.707C7 10.414 7 9.943 7 9V7.5Z" stroke="white" stroke-width="0.75"/>
<path d="M9.5 10H8.5M4 11H5.5V8.5M5.5 6.5H1" stroke="white" stroke-width="0.75" stroke-linecap="round"/>
</g>
<defs>
<clipPath id="clip0_36_90">
<rect width="12" height="12" fill="white"/>
</clipPath>
</defs>
</svg>
