<svg width="48" height="48" viewBox="0 0 48 48" fill="none" xmlns="http://www.w3.org/2000/svg">
<path d="M24.5007 21.3244C29.4927 16.3054 41.9757 25.0864 24.5007 36.3784C7.02569 25.0864 19.5087 16.3054 24.5007 21.3244Z" stroke="#A8D8B9" stroke-width="3"/>
<path d="M26.6218 4.87836C26.0593 4.31595 25.2963 4 24.5008 4C23.7053 4 22.9424 4.31595 22.3798 4.87836L2.43883 24.8164C2.15757 25.098 1.99972 25.4799 2 25.8779C2.00028 26.276 2.15867 26.6576 2.44033 26.9389C2.72199 27.2201 3.10385 27.378 3.5019 27.3777C3.89994 27.3774 4.28157 27.219 4.56283 26.9374L6.50083 24.9994V40.8784C6.50083 42.0718 6.97494 43.2164 7.81885 44.0603C8.66277 44.9043 9.80736 45.3784 11.0008 45.3784H38.0008C39.1943 45.3784 40.3389 44.9043 41.1828 44.0603C42.0267 43.2164 42.5008 42.0718 42.5008 40.8784V24.9994L44.4388 26.9374C44.7201 27.219 45.1017 27.3774 45.4998 27.3777C45.8978 27.378 46.2797 27.2201 46.5613 26.9389C46.843 26.6576 47.0014 26.276 47.0017 25.8779C47.002 25.4799 46.8441 25.098 46.5628 24.8164L39.5008 17.7574V7.87836C39.5008 7.48053 39.3428 7.099 39.0615 6.8177C38.7802 6.53639 38.3987 6.37836 38.0008 6.37836H35.0008C34.603 6.37836 34.2215 6.53639 33.9402 6.8177C33.6589 7.099 33.5008 7.48053 33.5008 7.87836V11.7574L26.6218 4.87836ZM39.5008 21.9994V40.8784C39.5008 41.2762 39.3428 41.6577 39.0615 41.939C38.7802 42.2203 38.3987 42.3784 38.0008 42.3784H11.0008C10.603 42.3784 10.2215 42.2203 9.94018 41.939C9.65887 41.6577 9.50083 41.2762 9.50083 40.8784V21.9994L24.5008 6.99936L39.5008 21.9994Z" fill="#A8D8B9"/>
</svg>
