<svg width="12" height="12" viewBox="0 0 12 12" fill="none" xmlns="http://www.w3.org/2000/svg">
<g clip-path="url(#clip0_36_108)">
<path d="M5.62513 0.0234439C6.14075 0.0234439 6.63685 0.0898502 7.11341 0.222663C7.58997 0.355475 8.03529 0.542975 8.44935 0.785163C8.86341 1.02735 9.24232 1.32032 9.58607 1.66407C9.92982 2.00782 10.2208 2.38477 10.4591 2.79493C10.6974 3.20509 10.8868 3.65235 11.0275 4.13673C11.1681 4.6211 11.2345 5.11719 11.2267 5.62501C11.2267 6.14063 11.1603 6.63673 11.0275 7.11329C10.8947 7.58985 10.7072 8.03516 10.465 8.44923C10.2228 8.86329 9.92982 9.2422 9.58607 9.58595C9.24232 9.9297 8.86536 10.2207 8.45521 10.459C8.04505 10.6973 7.59779 10.8867 7.11341 11.0274C6.62904 11.168 6.13294 11.2344 5.62513 11.2266C5.1095 11.2266 4.61341 11.1602 4.13685 11.0274C3.66029 10.8945 3.21497 10.707 2.80091 10.4649C2.38685 10.2227 2.00794 9.9297 1.66419 9.58595C1.32044 9.2422 1.02943 8.86524 0.791144 8.45509C0.552863 8.04493 0.36341 7.59766 0.222785 7.11329C0.0821598 6.62891 0.0157535 6.13282 0.023566 5.62501C0.023566 5.10938 0.0899723 4.61329 0.222785 4.13673C0.355597 3.66016 0.543097 3.21485 0.785285 2.80079C1.02747 2.38673 1.32044 2.00782 1.66419 1.66407C2.00794 1.32032 2.38489 1.0293 2.79505 0.791022C3.20521 0.552741 3.65247 0.363288 4.13685 0.222663C4.62122 0.0820377 5.11732 0.0156314 5.62513 0.0234439ZM5.62513 10.5234C6.07435 10.5234 6.50794 10.4649 6.92591 10.3477C7.34388 10.2305 7.7345 10.0664 8.09779 9.85548C8.46107 9.64454 8.79115 9.38868 9.08802 9.0879C9.3849 8.78712 9.6388 8.45704 9.84974 8.09766C10.0607 7.73829 10.2267 7.34766 10.3478 6.92579C10.4689 6.50391 10.5275 6.07032 10.5236 5.62501C10.5236 5.17579 10.465 4.74219 10.3478 4.32423C10.2306 3.90626 10.0665 3.51563 9.8556 3.15235C9.64466 2.78907 9.3888 2.45899 9.08802 2.16212C8.78724 1.86524 8.45716 1.61133 8.09779 1.4004C7.73841 1.18946 7.34779 1.02344 6.92591 0.90235C6.50404 0.781257 6.07044 0.722663 5.62513 0.726569C5.17591 0.726569 4.74232 0.785163 4.32435 0.90235C3.90638 1.01954 3.51575 1.1836 3.15247 1.39454C2.78919 1.60548 2.45911 1.86133 2.16224 2.16212C1.86536 2.4629 1.61146 2.79298 1.40052 3.15235C1.18958 3.51173 1.02357 3.90235 0.902472 4.32423C0.781379 4.7461 0.722785 5.17969 0.726691 5.62501C0.726691 6.07423 0.785285 6.50782 0.902472 6.92579C1.01966 7.34376 1.18372 7.73438 1.39466 8.09766C1.6056 8.46095 1.86146 8.79102 2.16224 9.0879C2.46302 9.38477 2.7931 9.63868 3.15247 9.84962C3.51185 10.0606 3.90247 10.2266 4.32435 10.3477C4.74622 10.4688 5.17982 10.5274 5.62513 10.5234ZM5.25013 8.62501C5.25013 8.4179 5.41802 8.25001 5.62513 8.25001C5.83224 8.25001 6.00013 8.4179 6.00013 8.62501C6.00013 8.83211 5.83224 9.00001 5.62513 9.00001C5.41802 9.00001 5.25013 8.83211 5.25013 8.62501ZM5.62513 2.62501C5.88294 2.62501 6.12513 2.67383 6.35169 2.77149C6.57825 2.86915 6.77552 3.00391 6.94349 3.17579C7.11146 3.34766 7.24622 3.54688 7.34779 3.77344C7.44935 4.00001 7.50013 4.24219 7.50013 4.50001C7.50013 4.73438 7.46302 4.93751 7.3888 5.10938C7.31458 5.28126 7.22279 5.43946 7.11341 5.58399C7.00404 5.72852 6.88294 5.85548 6.75013 5.96485C6.61732 6.07423 6.49818 6.18946 6.39271 6.31055C6.28724 6.43165 6.19349 6.55469 6.11146 6.67969C6.02943 6.80469 5.99232 6.95313 6.00013 7.12501C6.00013 7.33211 5.83224 7.50001 5.62513 7.50001C5.41802 7.50001 5.25013 7.33211 5.25013 7.12501C5.25013 6.89063 5.28724 6.68751 5.36146 6.51563C5.43568 6.34376 5.52747 6.18555 5.63685 6.04102C5.74622 5.89649 5.86732 5.76954 6.00013 5.66016C6.13294 5.55079 6.25208 5.43555 6.35755 5.31446C6.46302 5.19337 6.55677 5.07032 6.6388 4.94532C6.72083 4.82032 6.75794 4.67188 6.75013 4.50001C6.75013 4.34376 6.72083 4.19727 6.66224 4.06055C6.60364 3.92384 6.52357 3.80469 6.422 3.70313C6.32044 3.60157 6.2013 3.52149 6.06458 3.4629C5.92786 3.4043 5.78138 3.37501 5.62513 3.37501C5.46888 3.37501 5.32239 3.4043 5.18568 3.4629C5.04896 3.52149 4.92982 3.60157 4.82825 3.70313C4.72669 3.80469 4.64661 3.92384 4.58802 4.06055C4.57798 4.08397 4.56881 4.10768 4.56049 4.13167C4.49265 4.32735 4.33224 4.50001 4.12513 4.50001C3.91802 4.50001 3.74562 4.33044 3.78628 4.12736C3.81069 4.00543 3.84747 3.88746 3.89661 3.77344C3.99427 3.54688 4.12708 3.34962 4.29505 3.18165C4.46302 3.01368 4.66224 2.87891 4.89271 2.77735C5.12318 2.67579 5.36732 2.62501 5.62513 2.62501Z" fill="white"/>
</g>
<defs>
<clipPath id="clip0_36_108">
<rect width="12" height="12" fill="white"/>
</clipPath>
</defs>
</svg>
