<svg width="12" height="12" viewBox="0 0 12 12" fill="none" xmlns="http://www.w3.org/2000/svg">
<g clip-path="url(#clip0_124_329)">
<path d="M1 10.1667C1 9.45942 1.26339 8.78115 1.73223 8.28105C2.20107 7.78095 2.83696 7.5 3.5 7.5H8.5C9.16304 7.5 9.79893 7.78095 10.2678 8.28105C10.7366 8.78115 11 9.45942 11 10.1667C11 10.5203 10.8683 10.8594 10.6339 11.1095C10.3995 11.3595 10.0815 11.5 9.75 11.5H2.25C1.91848 11.5 1.60054 11.3595 1.36612 11.1095C1.1317 10.8594 1 10.5203 1 10.1667Z" stroke="black" stroke-linejoin="round"/>
<path d="M6 5.5C7.10457 5.5 8 4.60457 8 3.5C8 2.39543 7.10457 1.5 6 1.5C4.89543 1.5 4 2.39543 4 3.5C4 4.60457 4.89543 5.5 6 5.5Z" stroke="black"/>
</g>
<defs>
<clipPath id="clip0_124_329">
<rect width="12" height="12" fill="white"/>
</clipPath>
</defs>
</svg>
