<svg width="12" height="12" viewBox="0 0 12 12" fill="none" xmlns="http://www.w3.org/2000/svg">
<path d="M4.24978 4.25002L7.74978 7.75002M2.24978 6.25002L6.24978 2.25002C6.7139 1.78589 7.3434 1.52515 7.99978 1.52515C8.65615 1.52515 9.28565 1.78589 9.74978 2.25002C10.2139 2.71415 10.4746 3.34364 10.4746 4.00002C10.4746 4.6564 10.2139 5.28589 9.74978 5.75002L5.74978 9.75002C5.28565 10.2141 4.65615 10.4749 3.99978 10.4749C3.3434 10.4749 2.7139 10.2141 2.24978 9.75002C1.78565 9.28589 1.5249 8.6564 1.5249 8.00002C1.5249 7.34364 1.78565 6.71415 2.24978 6.25002Z" stroke="white" stroke-linecap="round" stroke-linejoin="round"/>
</svg>
