<svg width="48" height="48" viewBox="0 0 48 48" fill="none" xmlns="http://www.w3.org/2000/svg">
<path d="M22 22L12 12" stroke="#7E828C" stroke-width="3"/>
<path d="M10.0004 14.9999L15.0004 9.99992L9.00037 6.99992L7.00037 8.99992L10.0004 14.9999ZM39.9504 17.9499C40.9106 16.9906 41.5712 15.7727 41.8517 14.4447C42.1322 13.1166 42.0206 11.7357 41.5304 10.4699L38.6864 13.3139H34.6864V9.31393L37.5304 6.46992C36.2645 5.97861 34.8831 5.86605 33.5545 6.14596C32.2258 6.42587 31.0072 7.08617 30.0472 8.04641C29.0872 9.00665 28.4271 10.2254 28.1475 11.5541C27.8679 12.8828 27.9808 14.2642 28.4724 15.5299L15.5324 28.4719C14.2666 27.9803 12.8853 27.8675 11.5565 28.1471C10.2278 28.4267 9.00909 29.0867 8.04885 30.0468C7.08861 31.0068 6.42831 32.2254 6.1484 33.554C5.86849 34.8827 5.98105 36.2641 6.47237 37.5299L9.31437 34.6859H13.3144V38.6859L10.4704 41.5299C11.7359 42.0212 13.1169 42.134 14.4454 41.8544C15.7738 41.5748 16.9923 40.915 17.9524 39.9553C18.9126 38.9956 19.5729 37.7774 19.8531 36.4491C20.1332 35.1208 20.0211 33.7397 19.5304 32.4739L32.4744 19.5299C33.7396 20.0193 35.1197 20.1305 36.447 19.85C37.7742 19.5695 38.9913 18.9094 39.9504 17.9499Z" stroke="#7E828C" stroke-width="3" stroke-linejoin="round"/>
<path d="M23.5947 29L34.8027 40.208C35.0535 40.4593 35.3514 40.6586 35.6793 40.7946C36.0072 40.9306 36.3587 41.0006 36.7137 41.0006C37.0687 41.0006 37.4202 40.9306 37.7482 40.7946C38.0761 40.6586 38.3739 40.4593 38.6247 40.208L40.2087 38.624C40.46 38.3732 40.6593 38.0753 40.7953 37.7474C40.9313 37.4195 41.0014 37.068 41.0014 36.713C41.0014 36.358 40.9313 36.0065 40.7953 35.6786C40.6593 35.3507 40.46 35.0528 40.2087 34.802L29.0007 23.594" stroke="#7E828C" stroke-width="3" stroke-linejoin="round"/>
</svg>
