<svg width="12" height="12" viewBox="0 0 12 12" fill="none" xmlns="http://www.w3.org/2000/svg">
<path d="M5.5 5.5L3 3" stroke="white" stroke-width="0.75"/>
<path d="M2.50009 3.74998L3.75009 2.49998L2.25009 1.74998L1.75009 2.24998L2.50009 3.74998ZM9.98759 4.48748C10.2276 4.24764 10.3928 3.94318 10.4629 3.61117C10.5331 3.27916 10.5051 2.93392 10.3826 2.61748L9.67159 3.32848H8.67159V2.32848L9.38259 1.61748C9.06613 1.49465 8.72078 1.46651 8.38862 1.53649C8.05645 1.60647 7.75181 1.77154 7.5118 2.0116C7.27179 2.25166 7.10678 2.55634 7.03688 2.88853C6.96698 3.22071 6.99519 3.56605 7.11809 3.88248L3.88309 7.11798C3.56666 6.99508 3.22132 6.96687 2.88914 7.03677C2.55695 7.10667 2.25227 7.27168 2.01221 7.51169C1.77215 7.7517 1.60708 8.05634 1.5371 8.38851C1.46712 8.72067 1.49526 9.06602 1.61809 9.38248L2.32859 8.67148H3.32859V9.67148L2.61759 10.3825C2.93397 10.5053 3.27924 10.5335 3.61134 10.4636C3.94345 10.3937 4.24807 10.2287 4.48811 9.98882C4.72814 9.74889 4.89323 9.44435 4.96327 9.11227C5.03331 8.78019 5.00528 8.43491 4.88259 8.11848L8.11859 4.88248C8.43489 5.00482 8.77993 5.03262 9.11174 4.96249C9.44355 4.89237 9.74784 4.72734 9.98759 4.48748Z" stroke="white" stroke-width="0.75" stroke-linejoin="round"/>
<path d="M5.89844 7.25L8.70044 10.052C8.76313 10.1148 8.8376 10.1646 8.91958 10.1987C9.00156 10.2327 9.08944 10.2502 9.17819 10.2502C9.26694 10.2502 9.35482 10.2327 9.43679 10.1987C9.51877 10.1646 9.59324 10.1148 9.65594 10.052L10.0519 9.656C10.1148 9.5933 10.1646 9.51883 10.1986 9.43686C10.2326 9.35488 10.2501 9.267 10.2501 9.17825C10.2501 9.0895 10.2326 9.00162 10.1986 8.91964C10.1646 8.83766 10.1148 8.76319 10.0519 8.7005L7.24994 5.8985" stroke="white" stroke-width="0.75" stroke-linejoin="round"/>
</svg>
