<svg width="24" height="24" viewBox="0 0 24 24" fill="none" xmlns="http://www.w3.org/2000/svg">
<path d="M10.1442 6.62803C10.9302 4.66703 11.3242 3.68604 12.0002 3.68604C12.6762 3.68604 13.0702 4.66603 13.8562 6.62803L13.8932 6.71803C14.3372 7.82703 14.5592 8.38104 15.0132 8.71804C15.4652 9.05404 16.0602 9.10804 17.2492 9.21404L17.4632 9.23304C19.4092 9.40703 20.3832 9.49404 20.5902 10.113C20.7992 10.733 20.0762 11.39 18.6302 12.704L18.1492 13.144C17.4172 13.809 17.0512 14.142 16.8812 14.578C16.8491 14.6595 16.8223 14.743 16.8012 14.828C16.6902 15.282 16.7972 15.765 17.0112 16.73L17.0782 17.03C17.4712 18.805 17.6682 19.692 17.3252 20.075C17.1966 20.2179 17.0296 20.3206 16.8442 20.371C16.3482 20.507 15.6442 19.933 14.2342 18.785C13.3092 18.031 12.8462 17.654 12.3152 17.569C12.1065 17.5358 11.8939 17.5358 11.6852 17.569C11.1532 17.654 10.6912 18.031 9.76517 18.785C8.35717 19.933 7.65217 20.507 7.15617 20.371C6.97109 20.3205 6.80446 20.2177 6.67617 20.075C6.33217 19.692 6.52917 18.805 6.92217 17.031L6.98917 16.73C7.20317 15.764 7.31017 15.282 7.19917 14.827C7.17801 14.742 7.15129 14.6585 7.11917 14.577C6.94917 14.142 6.58317 13.809 5.85117 13.143L5.36917 12.704C3.92417 11.39 3.20117 10.732 3.40917 10.114C3.61817 9.49404 4.59117 9.40703 6.53717 9.23304L6.75117 9.21304C7.94117 9.10704 8.53517 9.05404 8.98817 8.71704C9.44117 8.38004 9.66317 7.82703 10.1082 6.71903L10.1442 6.62803Z" fill="#E8F5E9" stroke="#A8D8B9" stroke-width="2"/>
</svg>
