<svg width="12" height="12" viewBox="0 0 12 12" fill="none" xmlns="http://www.w3.org/2000/svg">
<path d="M6.00039 3C5.72539 3 5.49005 2.90217 5.29439 2.7065C5.09872 2.51084 5.00072 2.27534 5.00039 2C5.00005 1.72467 5.09805 1.48934 5.29439 1.294C5.49072 1.09867 5.72605 1.00067 6.00039 1C6.27472 0.999337 6.51022 1.09734 6.70689 1.294C6.90355 1.49067 7.00139 1.726 7.00039 2C6.99939 2.274 6.90155 2.5095 6.70689 2.7065C6.51222 2.9035 6.27672 3.00134 6.00039 3ZM4.50039 10.5V4.5C4.09205 4.46667 3.67955 4.42084 3.26289 4.3625C2.84622 4.30417 2.43789 4.22917 2.03789 4.1375C1.89622 4.10417 1.78172 4.025 1.69439 3.9C1.60705 3.775 1.58405 3.64167 1.62539 3.5C1.66672 3.35834 1.75422 3.25417 1.88789 3.1875C2.02155 3.12084 2.16322 3.10417 2.31289 3.1375C2.89622 3.2625 3.50255 3.35417 4.13189 3.4125C4.76122 3.47084 5.38405 3.5 6.00039 3.5C6.61672 3.5 7.23972 3.47084 7.86939 3.4125C8.49905 3.35417 9.10522 3.2625 9.68789 3.1375C9.83789 3.10417 9.97955 3.12084 10.1129 3.1875C10.2462 3.25417 10.3337 3.35834 10.3754 3.5C10.4171 3.64167 10.3942 3.775 10.3069 3.9C10.2196 4.025 10.1049 4.10417 9.96289 4.1375C9.56289 4.22917 9.15455 4.30417 8.73789 4.3625C8.32122 4.42084 7.90872 4.46667 7.50039 4.5V10.5C7.50039 10.6417 7.45255 10.7605 7.35689 10.8565C7.26122 10.9525 7.14239 11.0003 7.00039 11C6.85839 10.9997 6.73972 10.9517 6.64439 10.856C6.54905 10.7603 6.50105 10.6417 6.50039 10.5V8H5.50039V10.5C5.50039 10.6417 5.45239 10.7605 5.35639 10.8565C5.26039 10.9525 5.14172 11.0003 5.00039 11C4.85905 10.9997 4.74039 10.9517 4.64439 10.856C4.54839 10.7603 4.50039 10.6417 4.50039 10.5Z" fill="#F7F8FA"/>
</svg>
