<svg width="12" height="12" viewBox="0 0 12 12" fill="none" xmlns="http://www.w3.org/2000/svg">
<path d="M9.11887 2.65248C9.1668 2.60455 9.2237 2.56654 9.28632 2.54061C9.34894 2.51467 9.41606 2.50132 9.48385 2.50132C9.55163 2.50132 9.61875 2.51467 9.68137 2.54061C9.74399 2.56654 9.80089 2.60455 9.84882 2.65248C9.89675 2.7004 9.93477 2.75729 9.96071 2.8199C9.98665 2.88251 10 2.94962 10 3.01739C10 3.08516 9.98665 3.15227 9.96071 3.21488C9.93477 3.2775 9.89675 3.33439 9.84882 3.38231L6.73124 6.50028L9.84882 9.61825L9.91534 9.69914C9.98037 9.79848 10.0092 9.91717 9.997 10.0353C9.9848 10.1534 9.93231 10.2637 9.84834 10.3476C9.76438 10.4316 9.65407 10.484 9.53596 10.4962C9.41784 10.5084 9.29913 10.4796 9.19978 10.4146L9.11887 10.3481L6.00039 7.23011L2.88191 10.349C2.83392 10.3969 2.77696 10.4349 2.71429 10.4608C2.65161 10.4867 2.58444 10.5 2.51662 10.5C2.44879 10.5 2.38164 10.4866 2.319 10.4606C2.25635 10.4346 2.19944 10.3965 2.15151 10.3485C2.10358 10.3005 2.06557 10.2436 2.03965 10.1809C2.01374 10.1183 2.00042 10.0511 2.00046 9.98329C2.0005 9.91548 2.0139 9.84834 2.0399 9.78571C2.06589 9.72307 2.10397 9.66617 2.15196 9.61825L5.27044 6.50028L2.15106 3.38231L2.08544 3.30142C2.0199 3.20209 1.99065 3.0832 2.00262 2.96481C2.0146 2.84642 2.06707 2.73579 2.15117 2.6516C2.23527 2.56741 2.34585 2.51481 2.46424 2.50269C2.58263 2.49057 2.70158 2.51966 2.801 2.58506L2.88191 2.65248L6.00039 5.76955L9.11887 2.65248Z" fill="white"/>
</svg>
