<svg width="48" height="48" viewBox="0 0 48 48" fill="none" xmlns="http://www.w3.org/2000/svg">
<path fill-rule="evenodd" clip-rule="evenodd" d="M23.9995 8.38376C26.342 6.21339 29.4161 5.00516 32.6095 4.99976C36.0615 4.99976 39.3575 6.41976 41.7695 8.91976C44.1697 11.4218 45.5066 14.7567 45.4995 18.2238C45.5066 21.6909 44.1697 25.0258 41.7695 27.5278C40.1775 29.1778 38.5875 30.8678 36.9895 32.5638C33.7415 36.0118 30.4595 39.4978 27.0495 42.7798L27.0435 42.7878C26.1968 43.5895 25.0679 44.0248 23.9021 43.999C22.7363 43.9731 21.6278 43.4883 20.8175 42.6498L6.2275 27.5278C1.2575 22.3738 1.2575 14.0738 6.2275 8.92176C8.52471 6.51457 11.6773 5.10856 15.0032 5.00787C18.3291 4.90719 21.5609 6.11994 23.9995 8.38376Z" fill="#FF383C"/>
</svg>
